<svg width="30" height="30" viewBox="0 0 30 30" fill="none" xmlns="http://www.w3.org/2000/svg">
<path d="M21.772 30C21.0015 30 20.2157 29.7188 19.4145 29.1564C18.6441 28.6292 17.8582 27.768 17.057 26.5729C16.0709 25.0264 15.2388 23.5501 14.5609 22.1441C13.8829 20.7381 13.3282 19.5079 12.8968 18.4534C12.4961 17.3989 12.188 16.6432 11.9723 16.1863C11.9723 16.1863 12.0493 16.0808 12.2034 15.8699C12.3575 15.6239 12.5424 15.3954 12.7581 15.1845C13.0046 14.9385 13.2049 14.8155 13.359 14.8155C14.8074 14.8155 16.1017 14.7979 17.2419 14.7627C18.4129 14.6924 19.4453 14.4815 20.339 14.1301C21.2635 13.7434 22.0801 13.0931 22.7889 12.1793C23.4977 11.2654 24.0986 9.96485 24.5917 8.27768C24.7458 7.85589 24.8382 7.43409 24.869 7.0123C24.9307 6.55536 24.9615 6.11599 24.9615 5.6942C24.9615 4.49912 24.6995 3.44464 24.1757 2.53075C23.6518 1.61687 22.8968 1.08963 21.9106 0.949034C21.7874 0.913883 21.6487 0.896307 21.4946 0.896307C21.3405 0.896307 21.1864 0.896307 21.0324 0.896307C20.4468 0.896307 19.7997 0.984181 19.0909 1.15993C18.4129 1.33567 17.9045 1.66959 17.5655 2.16169C16.7951 3.32162 16.0555 4.63972 15.3467 6.11599C14.6379 7.55712 13.9599 9.03339 13.3128 10.5448C12.6656 12.0211 12.0493 13.4095 11.4638 14.71C11.3097 15.0615 11.0169 15.6942 10.5855 16.6081C10.1541 17.4868 9.67643 18.5062 9.15254 19.6661C8.62866 20.7909 8.13559 21.9156 7.67334 23.0404C7.21109 24.1652 6.84129 25.167 6.56394 26.0457C6.31741 26.9244 6.25578 27.522 6.37905 27.8383C6.40986 27.8735 6.42527 27.9262 6.42527 27.9965C6.42527 28.1019 6.37904 28.1547 6.28659 28.1547C6.04006 28.1547 5.79353 28.0844 5.547 27.9438C5.30046 27.8032 5.0077 27.7329 4.66872 27.7329C4.36055 27.7329 4.05239 27.8207 3.74422 27.9965C3.43606 28.1371 3.03544 28.4007 2.54237 28.7873C2.04931 29.174 1.49461 29.4903 0.878274 29.7364C0.816641 29.7715 0.724191 29.7891 0.600924 29.7891C0.385208 29.7891 0.215716 29.7188 0.0924499 29.5782C-0.0308166 29.4728 -0.0308166 29.3849 0.0924499 29.3146C0.770416 29.174 1.35593 28.8928 1.849 28.471C2.34206 28.0141 2.74268 27.4517 3.05085 26.7838C3.698 25.5536 4.32974 24.3234 4.94607 23.0931C5.59322 21.8278 6.20955 20.5624 6.79507 19.297C7.50385 17.7504 8.22804 16.2039 8.96764 14.6573C9.70724 13.0756 10.4468 11.5114 11.1864 9.96485C11.8952 8.52372 12.527 7.13532 13.0817 5.79965C13.6364 4.46397 14.0524 3.49736 14.3297 2.89982C14.5455 2.44288 14.9153 2.03866 15.4391 1.68717C15.9938 1.30053 16.5331 1.00176 17.057 0.79086C16.8721 0.79086 16.6872 0.79086 16.5023 0.79086C16.3174 0.755711 16.1171 0.738137 15.9014 0.738137C14.9461 0.738137 13.8983 0.808436 12.7581 0.949034C11.6487 1.05448 10.5547 1.23023 9.47612 1.47627C8.42835 1.72232 7.50385 2.05624 6.70262 2.47803C5.90139 2.89982 5.3621 3.40949 5.08475 4.00703C4.96148 4.32337 4.85362 4.63972 4.76117 4.95606C4.66872 5.27241 4.6225 5.58875 4.6225 5.9051C4.6225 6.71353 4.86903 7.2935 5.3621 7.64499C5.39291 7.64499 5.40832 7.68014 5.40832 7.75044C5.40832 7.82074 5.34669 7.89104 5.22342 7.96134C5.13097 8.03163 5.05393 8.04921 4.9923 8.01406C4.68413 7.83831 4.32974 7.41652 3.92912 6.74868C3.55932 6.04569 3.31279 5.46573 3.18952 5.00879C3.09707 4.58699 3.05085 4.20035 3.05085 3.84886C3.05085 2.93497 3.31279 2.23199 3.83667 1.73989C4.36055 1.21265 5.02311 0.843585 5.82435 0.632687C6.62558 0.386642 7.44222 0.246045 8.27427 0.210894C9.13713 0.140596 9.89214 0.105447 10.5393 0.105447C11.5254 0.105447 12.6965 0.105447 14.0524 0.105447C15.4083 0.0702979 16.6564 0.0527234 17.7966 0.0527234C18.074 0.0527234 18.3821 0.0527234 18.7211 0.0527234C19.0601 0.0175745 19.4145 0 19.7843 0C20.6163 0 21.4792 0.0527234 22.3729 0.15817C23.2666 0.263619 24.0832 0.49209 24.8228 0.843584C25.5624 1.19508 26.1325 1.73989 26.5331 2.47803C27.057 3.46221 27.319 4.58699 27.319 5.85237C27.319 7.78559 26.8721 9.40246 25.9784 10.703C25.6703 11.1599 25.3313 11.5993 24.9615 12.0211C24.5917 12.4429 24.1602 12.8471 23.6672 13.2337C22.8659 13.8664 21.9106 14.4112 20.8012 14.8682C19.6918 15.29 18.5362 15.6063 17.3344 15.8172C16.1633 16.0281 15.0847 16.1687 14.0986 16.239C14.4992 17.2232 15.1002 18.5413 15.9014 20.1933C16.7334 21.8453 17.735 23.4974 18.906 25.1494C19.5223 26.0281 20.1541 26.6432 20.8012 26.9947C21.4484 27.3462 22.0801 27.522 22.6965 27.522C23.6826 27.522 24.6071 27.188 25.47 26.5202C26.3636 25.8524 27.1649 25.0791 27.8737 24.2003C28.6133 23.2865 29.1988 22.4956 29.6302 21.8278C29.7227 21.652 29.7997 21.5641 29.8613 21.5641C29.9538 21.5641 30 21.6696 30 21.8805C30 22.1617 29.9076 22.4429 29.7227 22.7241C28.3051 24.9385 26.9492 26.7135 25.6549 28.0492C24.3606 29.3497 23.0663 30 21.772 30Z" fill="white"/>
</svg>
