<svg width="36" height="36" viewBox="0 0 36 36" fill="none" xmlns="http://www.w3.org/2000/svg">
<path d="M32.33 6C32.1937 5.98595 32.0563 5.98595 31.92 6H3.92C3.74054 6.00276 3.56228 6.02967 3.39 6.08L17.84 20.47L32.33 6Z" fill="black"/>
<path d="M33.81 7.39L19.25 21.89C18.8753 22.2625 18.3684 22.4716 17.84 22.4716C17.3116 22.4716 16.8047 22.2625 16.43 21.89L2 7.5C1.95564 7.66304 1.93212 7.83105 1.93 8V28C1.93 28.5304 2.14071 29.0391 2.51579 29.4142C2.89086 29.7893 3.39957 30 3.93 30H31.93C32.4604 30 32.9691 29.7893 33.3442 29.4142C33.7193 29.0391 33.93 28.5304 33.93 28V8C33.922 7.79165 33.8816 7.58583 33.81 7.39V7.39ZM5.3 28H3.91V26.57L11.18 19.36L12.59 20.77L5.3 28ZM31.91 28H30.51L23.22 20.77L24.63 19.36L31.9 26.57L31.91 28Z" fill="black"/>
</svg>
