<svg width="14" height="12" viewBox="0 0 14 12" fill="none" xmlns="http://www.w3.org/2000/svg">
<path d="M11.7802 0.47609C11.9753 0.285751 12.281 0.285751 12.4697 0.47609C12.6648 0.666428 12.6648 0.981471 12.4697 1.17181L11.2858 2.36635C12.229 3.23271 13.0291 4.401 13.6276 5.80556C13.6796 5.93027 13.6796 6.07466 13.6276 6.1928C12.2355 9.46137 9.75713 11.4173 6.99904 11.4173H6.99254C5.73709 11.4173 4.53368 11.0038 3.47337 10.249L2.21142 11.5223C2.11384 11.6207 1.99025 11.6667 1.86666 11.6667C1.74306 11.6667 1.61297 11.6207 1.5219 11.5223C1.35927 11.3582 1.33325 11.0957 1.46335 10.9053L1.48287 10.8791L11.1036 1.17181C11.1167 1.15868 11.1297 1.14556 11.1362 1.13243C11.1492 1.1193 11.1622 1.10618 11.1687 1.09305L11.7802 0.47609ZM7.0008 0.590227C7.931 0.590227 8.83519 0.813382 9.66782 1.23344L7.49517 3.42561C7.33905 3.39936 7.16992 3.37967 7.0008 3.37967C5.56321 3.37967 4.39883 4.55451 4.39883 6.00502C4.39883 6.17567 4.41834 6.34632 4.44436 6.50384L2.03754 8.9323C1.38705 8.17094 0.821121 7.25207 0.372281 6.19536C0.320242 6.07722 0.320242 5.93283 0.372281 5.80812C1.76433 2.53955 4.24271 0.590227 6.99429 0.590227H7.0008ZM9.14567 4.5257L8.43663 5.24111C8.55372 5.46427 8.61877 5.7268 8.61877 6.00246C8.61877 6.90165 7.89021 7.63675 6.99904 7.63675C6.72583 7.63675 6.46564 7.57111 6.24447 7.45297L5.53543 8.16838C5.95175 8.45061 6.45913 8.62126 6.99904 8.62126C8.43012 8.62126 9.5945 7.44641 9.5945 6.00246C9.5945 5.4577 9.42538 4.94576 9.14567 4.5257Z" fill="black"/>
</svg>
