<svg width="21" height="21" viewBox="0 0 21 21" fill="none" xmlns="http://www.w3.org/2000/svg">
<path d="M14.6537 0.916084C17.9006 0.916084 20.0827 3.195 20.0827 6.58654V14.4132C20.0827 17.8048 17.9006 20.0827 14.6528 20.0827H6.34593C3.09814 20.0827 0.916016 17.8048 0.916016 14.4132V6.58654C0.916016 3.195 3.09814 0.916084 6.34593 0.916084H14.6537ZM7.47197 8.00679C6.09772 8.00679 4.97935 9.12517 4.97935 10.4994C4.97935 11.8746 6.09772 12.993 7.47197 12.993C8.59514 12.993 9.53622 12.2417 9.84672 11.2182H11.8707V12.2742C11.8707 12.671 12.1927 12.993 12.5895 12.993C12.9862 12.993 13.3082 12.671 13.3082 12.2742V11.2182H14.5828V12.2742C14.5828 12.671 14.9048 12.993 15.3016 12.993C15.6983 12.993 16.0203 12.671 16.0203 12.2742V10.4994C16.0203 10.1027 15.6983 9.78067 15.3016 9.78067H9.84672C9.53622 8.75812 8.59514 8.00679 7.47197 8.00679ZM7.47207 9.4442C8.05378 9.4442 8.52815 9.91761 8.52815 10.5003C8.52815 11.082 8.05378 11.5554 7.47207 11.5554C6.89036 11.5554 6.41599 11.082 6.41599 10.5003C6.41599 9.91761 6.89036 9.4442 7.47207 9.4442Z" fill="black"/>
</svg>
