<svg width="21" height="21" viewBox="0 0 21 21" fill="none" xmlns="http://www.w3.org/2000/svg">
<path d="M14.6537 0.916138C17.9006 0.916138 20.0827 3.19505 20.0827 6.5866V14.4133C20.0827 17.8048 17.9006 20.0828 14.6528 20.0828H6.34593C3.09814 20.0828 0.916016 17.8048 0.916016 14.4133V6.5866C0.916016 3.19505 3.09814 0.916138 6.34593 0.916138H14.6537ZM7.47197 8.00684C6.09772 8.00684 4.97935 9.12522 4.97935 10.4995C4.97935 11.8747 6.09772 12.9931 7.47197 12.9931C8.59514 12.9931 9.53622 12.2417 9.84672 11.2182H11.8707V12.2743C11.8707 12.6711 12.1927 12.9931 12.5895 12.9931C12.9862 12.9931 13.3082 12.6711 13.3082 12.2743V11.2182H14.5828V12.2743C14.5828 12.6711 14.9048 12.9931 15.3016 12.9931C15.6983 12.9931 16.0203 12.6711 16.0203 12.2743V10.4995C16.0203 10.1027 15.6983 9.78072 15.3016 9.78072H9.84672C9.53622 8.75818 8.59514 8.00684 7.47197 8.00684ZM7.47207 9.44425C8.05378 9.44425 8.52815 9.91767 8.52815 10.5003C8.52815 11.082 8.05378 11.5555 7.47207 11.5555C6.89036 11.5555 6.41599 11.082 6.41599 10.5003C6.41599 9.91767 6.89036 9.44425 7.47207 9.44425Z" fill="#EA455F"/>
</svg>
