<svg width="21" height="21" viewBox="0 0 21 21" fill="none" xmlns="http://www.w3.org/2000/svg">
<path d="M7.08756 11.6725L9.56381 9.19627L3.42131 3.06252C2.76581 3.71992 2.39771 4.61041 2.39771 5.53877C2.39771 6.46714 2.76581 7.35763 3.42131 8.01502L7.08756 11.6725ZM13.0201 10.0888C14.3588 10.71 16.2401 10.2725 17.6313 8.88127C19.3026 7.21002 19.6263 4.81252 18.3401 3.52627C17.0626 2.24877 14.6651 2.56377 12.9851 4.23502C11.5938 5.62627 11.1563 7.50752 11.7776 8.84627L3.23756 17.3863L4.47131 18.62L10.5001 12.6088L16.5201 18.6288L17.7538 17.395L11.7338 11.375L13.0201 10.0888Z" fill="#EA455F"/>
</svg>
