<svg width="21" height="21" viewBox="0 0 21 21" fill="none" xmlns="http://www.w3.org/2000/svg">
<path d="M18.8591 3.49998C18.7796 3.49179 18.6995 3.49179 18.62 3.49998H2.28664C2.18196 3.50159 2.07797 3.51729 1.97748 3.54665L10.4066 11.9408L18.8591 3.49998Z" fill="#EA455F"/>
<path d="M19.7225 4.31085L11.2292 12.7692C11.0106 12.9865 10.7149 13.1084 10.4067 13.1084C10.0985 13.1084 9.80278 12.9865 9.58419 12.7692L1.16669 4.37502C1.14081 4.47013 1.12709 4.56813 1.12585 4.66669V16.3334C1.12585 16.6428 1.24877 16.9395 1.46756 17.1583C1.68636 17.3771 1.9831 17.5 2.29252 17.5H18.6259C18.9353 17.5 19.232 17.3771 19.4508 17.1583C19.6696 16.9395 19.7925 16.6428 19.7925 16.3334V4.66669C19.7879 4.54515 19.7643 4.42509 19.7225 4.31085ZM3.09169 16.3334H2.28085V15.4992L6.52169 11.2934L7.34419 12.1159L3.09169 16.3334ZM18.6142 16.3334H17.7975L13.545 12.1159L14.3675 11.2934L18.6084 15.4992L18.6142 16.3334Z" fill="#EA455F"/>
</svg>
