<svg width="17" height="13" viewBox="0 0 17 13" fill="none" xmlns="http://www.w3.org/2000/svg">
<path d="M8.49992 0.166667C10.1373 0.166667 11.6898 0.734748 13.0414 1.78646C14.393 2.83051 15.5438 4.35818 16.3702 6.2697C16.432 6.41556 16.432 6.58444 16.3702 6.72263C14.7174 10.5457 11.7747 12.8333 8.49992 12.8333H8.4922C5.22512 12.8333 2.28244 10.5457 0.629593 6.72263C0.567805 6.58444 0.567805 6.41556 0.629593 6.2697C2.28244 2.44667 5.22512 0.166667 8.4922 0.166667H8.49992ZM8.49992 3.42929C6.79301 3.42929 5.41049 4.80343 5.41049 6.5C5.41049 8.18889 6.79301 9.56303 8.49992 9.56303C10.1991 9.56303 11.5816 8.18889 11.5816 6.5C11.5816 4.80343 10.1991 3.42929 8.49992 3.42929ZM8.50085 4.57912C9.55898 4.57912 10.424 5.43892 10.424 6.49831C10.424 7.55003 9.55898 8.40983 8.50085 8.40983C7.43499 8.40983 6.56995 7.55003 6.56995 6.49831C6.56995 6.36781 6.5854 6.24498 6.60857 6.12215H6.64719C7.5045 6.12215 8.19963 5.44659 8.23052 4.60215C8.31548 4.5868 8.40816 4.57912 8.50085 4.57912Z" fill="black"/>
</svg>
