<svg width="20" height="19" viewBox="0 0 20 19" fill="none" xmlns="http://www.w3.org/2000/svg">
<path d="M6.10007 10.34L8.93007 7.51L1.91007 0.500003C1.16092 1.25131 0.740234 2.26902 0.740234 3.33C0.740234 4.39099 1.16092 5.40869 1.91007 6.16L6.10007 10.34ZM12.8801 8.53C14.4101 9.24 16.5601 8.74 18.1501 7.15C20.0601 5.24 20.4301 2.5 18.9601 1.03C17.5001 -0.429997 14.7601 -0.0699967 12.8401 1.84C11.2501 3.43 10.7501 5.58 11.4601 7.11L1.70007 16.87L3.11007 18.28L10.0001 11.41L16.8801 18.29L18.2901 16.88L11.4101 10L12.8801 8.53Z" fill="white"/>
</svg>
