<svg width="32" height="32" viewBox="0 0 32 32" fill="none" xmlns="http://www.w3.org/2000/svg">
<mask id="mask0_16_4" style="mask-type:alpha" maskUnits="userSpaceOnUse" x="0" y="0" width="32" height="32">
<rect width="32" height="32" fill="#C4C4C4"/>
</mask>
<g mask="url(#mask0_16_4)">
<path d="M15.2871 12.6667H11.9653V1H8.64357V12.6667H5.32178V1H2V14.3333C2 17.09 4.23556 19.3333 6.98267 19.3333H8.64357V31H11.9653V19.3333H13.6262C16.3734 19.3333 18.6089 17.09 18.6089 14.3333V1H15.2871V12.6667ZM26.9134 1H25.2525C23.3275 1 21.9307 3.10333 21.9307 6V19.3333H25.2525V31H28.5743V2.66667C28.5743 2.22464 28.3993 1.80072 28.0878 1.48816C27.7763 1.17559 27.3539 1 26.9134 1Z" fill="black"/>
<path d="M53.6687 29.3333L48.96 22.5083H43.7631V29.3333H38.1128V4.83333H48.681C50.8435 4.83333 52.7153 5.195 54.2965 5.91833C55.9009 6.64167 57.1333 7.66833 57.9936 8.99833C58.854 10.3283 59.2841 11.9033 59.2841 13.7233C59.2841 15.5433 58.8424 17.1183 57.9588 18.4483C57.0984 19.755 55.866 20.7583 54.2616 21.4583L59.7376 29.3333H53.6687ZM53.564 13.7233C53.564 12.3467 53.1222 11.2967 52.2386 10.5733C51.3551 9.82667 50.0645 9.45333 48.3671 9.45333H43.7631V17.9933H48.3671C50.0645 17.9933 51.3551 17.62 52.2386 16.8733C53.1222 16.1267 53.564 15.0767 53.564 13.7233Z" fill="black"/>
<path d="M81.7583 19.9883C81.7583 20.0583 81.7234 20.5483 81.6537 21.4583H67.458C67.7138 22.625 68.3184 23.5467 69.2717 24.2233C70.2251 24.9 71.4109 25.2383 72.8293 25.2383C73.806 25.2383 74.6663 25.0983 75.4104 24.8183C76.1777 24.515 76.8869 24.0483 77.538 23.4183L80.4329 26.5683C78.6657 28.5983 76.0847 29.6133 72.6898 29.6133C70.5739 29.6133 68.702 29.205 67.0744 28.3883C65.4467 27.5483 64.1911 26.3933 63.3075 24.9233C62.4239 23.4533 61.9821 21.785 61.9821 19.9183C61.9821 18.075 62.4122 16.4183 63.2726 14.9483C64.1562 13.455 65.3537 12.3 66.8651 11.4833C68.3998 10.6433 70.1088 10.2233 71.9923 10.2233C73.8292 10.2233 75.4918 10.62 76.9799 11.4133C78.4681 12.2067 79.6307 13.35 80.4678 14.8433C81.3281 16.3133 81.7583 18.0283 81.7583 19.9883ZM72.0271 14.3533C70.7948 14.3533 69.76 14.7033 68.9229 15.4033C68.0858 16.1033 67.5743 17.06 67.3883 18.2733H76.6311C76.4451 17.0833 75.9336 16.1383 75.0965 15.4383C74.2594 14.715 73.2363 14.3533 72.0271 14.3533Z" fill="black"/>
<path d="M91.6938 29.6133C90.1359 29.6133 88.6129 29.4267 87.1247 29.0533C85.6366 28.6567 84.4507 28.1667 83.5671 27.5833L85.3808 23.6633C86.2179 24.2 87.2294 24.6433 88.4152 24.9933C89.6011 25.32 90.7637 25.4833 91.9031 25.4833C94.2051 25.4833 95.3561 24.9117 95.3561 23.7683C95.3561 23.2317 95.0422 22.8467 94.4144 22.6133C93.7866 22.38 92.8216 22.1817 91.5194 22.0183C89.9848 21.785 88.7175 21.5167 87.7177 21.2133C86.7178 20.91 85.8458 20.3733 85.1018 19.6033C84.3809 18.8333 84.0205 17.7367 84.0205 16.3133C84.0205 15.1233 84.3577 14.0733 85.032 13.1633C85.7296 12.23 86.7294 11.5067 88.0316 10.9933C89.357 10.48 90.9149 10.2233 92.7053 10.2233C94.0307 10.2233 95.3445 10.375 96.6466 10.6783C97.972 10.9583 99.0649 11.355 99.9252 11.8683L98.1115 15.7533C96.4606 14.82 94.6585 14.3533 92.7053 14.3533C91.5427 14.3533 90.6707 14.5167 90.0894 14.8433C89.5081 15.17 89.2174 15.59 89.2174 16.1033C89.2174 16.6867 89.5314 17.095 90.1592 17.3283C90.787 17.5617 91.7868 17.7833 93.1587 17.9933C94.6934 18.25 95.949 18.53 96.9256 18.8333C97.9022 19.1133 98.751 19.6383 99.4718 20.4083C100.193 21.1783 100.553 22.2517 100.553 23.6283C100.553 24.795 100.204 25.8333 99.5067 26.7433C98.8091 27.6533 97.786 28.365 96.4373 28.8783C95.1119 29.3683 93.5308 29.6133 91.6938 29.6133Z" fill="black"/>
<path d="M116.013 28.4233C115.478 28.82 114.816 29.1233 114.025 29.3333C113.258 29.52 112.444 29.6133 111.583 29.6133C109.351 29.6133 107.619 29.0417 106.386 27.8983C105.177 26.755 104.573 25.075 104.573 22.8583V15.1233H101.678V10.9233H104.573V6.33833H110.014V10.9233H114.688V15.1233H110.014V22.7883C110.014 23.5817 110.212 24.2 110.607 24.6433C111.025 25.0633 111.607 25.2733 112.351 25.2733C113.211 25.2733 113.944 25.04 114.548 24.5733L116.013 28.4233Z" fill="black"/>
<path d="M124.264 12.9883C124.915 12.0783 125.787 11.39 126.88 10.9233C127.996 10.4567 129.275 10.2233 130.717 10.2233V15.2633C130.112 15.2167 129.705 15.1933 129.496 15.1933C127.938 15.1933 126.717 15.6367 125.834 16.5233C124.95 17.3867 124.508 18.6933 124.508 20.4433V29.3333H119.067V10.5033H124.264V12.9883Z" fill="black"/>
<path d="M142.711 29.6133C140.734 29.6133 138.956 29.205 137.374 28.3883C135.816 27.5483 134.596 26.3933 133.712 24.9233C132.828 23.4533 132.387 21.785 132.387 19.9183C132.387 18.0517 132.828 16.3833 133.712 14.9133C134.596 13.4433 135.816 12.3 137.374 11.4833C138.956 10.6433 140.734 10.2233 142.711 10.2233C144.687 10.2233 146.454 10.6433 148.012 11.4833C149.57 12.3 150.791 13.4433 151.675 14.9133C152.558 16.3833 153 18.0517 153 19.9183C153 21.785 152.558 23.4533 151.675 24.9233C150.791 26.3933 149.57 27.5483 148.012 28.3883C146.454 29.205 144.687 29.6133 142.711 29.6133ZM142.711 25.1333C144.106 25.1333 145.245 24.6667 146.129 23.7333C147.036 22.7767 147.489 21.505 147.489 19.9183C147.489 18.3317 147.036 17.0717 146.129 16.1383C145.245 15.1817 144.106 14.7033 142.711 14.7033C141.316 14.7033 140.165 15.1817 139.258 16.1383C138.351 17.0717 137.898 18.3317 137.898 19.9183C137.898 21.505 138.351 22.7767 139.258 23.7333C140.165 24.6667 141.316 25.1333 142.711 25.1333Z" fill="black"/>
</g>
</svg>
