<svg width="18" height="20" viewBox="0 0 18 20" fill="none" xmlns="http://www.w3.org/2000/svg">
<path fill-rule="evenodd" clip-rule="evenodd" d="M3.0001 0.399994C2.36358 0.399994 1.75313 0.65285 1.30304 1.10294C0.852954 1.55302 0.600098 2.16347 0.600098 2.79999V19.6L4.8001 17.2L9.0001 19.6L13.2001 17.2L17.4001 19.6V2.79999C17.4001 2.16347 17.1472 1.55302 16.6972 1.10294C16.2471 0.65285 15.6366 0.399994 15.0001 0.399994H3.0001ZM6.0001 3.99999C5.52271 3.99999 5.06487 4.18964 4.7273 4.5272C4.38974 4.86477 4.2001 5.3226 4.2001 5.79999C4.2001 6.27738 4.38974 6.73522 4.7273 7.07279C5.06487 7.41035 5.52271 7.59999 6.0001 7.59999C6.47749 7.59999 6.93532 7.41035 7.27289 7.07279C7.61046 6.73522 7.8001 6.27738 7.8001 5.79999C7.8001 5.3226 7.61046 4.86477 7.27289 4.5272C6.93532 4.18964 6.47749 3.99999 6.0001 3.99999ZM13.4485 4.35159C13.2235 4.12663 12.9183 4.00025 12.6001 4.00025C12.2819 4.00025 11.9767 4.12663 11.7517 4.35159L4.5517 11.5516C4.43709 11.6623 4.34567 11.7947 4.28278 11.9411C4.21989 12.0875 4.18678 12.245 4.1854 12.4043C4.18401 12.5636 4.21437 12.7217 4.27471 12.8691C4.33505 13.0166 4.42415 13.1506 4.53682 13.2633C4.64949 13.3759 4.78348 13.465 4.93095 13.5254C5.07843 13.5857 5.23644 13.6161 5.39578 13.6147C5.55511 13.6133 5.71258 13.5802 5.85898 13.5173C6.00539 13.4544 6.1378 13.363 6.2485 13.2484L13.4485 6.04839C13.6735 5.82336 13.7998 5.51819 13.7998 5.19999C13.7998 4.8818 13.6735 4.57663 13.4485 4.35159ZM12.0001 9.99999C11.5227 9.99999 11.0649 10.1896 10.7273 10.5272C10.3897 10.8648 10.2001 11.3226 10.2001 11.8C10.2001 12.2774 10.3897 12.7352 10.7273 13.0728C11.0649 13.4104 11.5227 13.6 12.0001 13.6C12.4775 13.6 12.9353 13.4104 13.2729 13.0728C13.6105 12.7352 13.8001 12.2774 13.8001 11.8C13.8001 11.3226 13.6105 10.8648 13.2729 10.5272C12.9353 10.1896 12.4775 9.99999 12.0001 9.99999Z" fill="white"/>
</svg>
